<?xml version="1.0" encoding="UTF-8"?>
<svg id="Laag_1" data-name="Laag 1" xmlns="http://www.w3.org/2000/svg" xmlns:xlink="http://www.w3.org/1999/xlink" viewBox="0 0 2130.84 443.68">
  <defs>
    <style>
      .cls-1 {
        fill: url(#Naamloos_verloop_5);
      }

      .cls-2 {
        fill: url(#Naamloos_verloop_5-3);
      }

      .cls-3 {
        fill: url(#Naamloos_verloop_5-2);
      }
    </style>
    <linearGradient id="Naamloos_verloop_5" data-name="Naamloos verloop 5" x1="1911.59" y1="0" x2="1911.59" y2="77.37" gradientUnits="userSpaceOnUse">
      <stop offset="0" stop-color="#b099fc"/>
      <stop offset="1" stop-color="#6a48e0"/>
    </linearGradient>
    <linearGradient id="Naamloos_verloop_5-2" data-name="Naamloos verloop 5" y1="120.3" y2="442.96" xlink:href="#Naamloos_verloop_5"/>
    <linearGradient id="Naamloos_verloop_5-3" data-name="Naamloos verloop 5" x1="2061.29" y1="0" x2="2061.29" y2="443.68" xlink:href="#Naamloos_verloop_5"/>
  </defs>
  <g>
    <path d="m0,314.96l73.72-7.17c4.44,24.74,13.42,42.89,27.02,54.49,13.54,11.6,31.85,17.41,54.89,17.41,24.4,0,42.78-5.18,55.18-15.47,12.34-10.35,18.54-22.41,18.54-36.23,0-8.87-2.62-16.44-7.79-22.64-5.23-6.26-14.31-11.66-27.28-16.27-8.87-3.07-29.1-8.53-60.67-16.38-40.61-10.07-69.11-22.41-85.5-37.14-23.04-20.59-34.56-45.79-34.56-75.48,0-19.11,5.4-36.97,16.24-53.64,10.84-16.61,26.45-29.29,46.87-38,20.36-8.7,44.99-13.08,73.83-13.08,47.1,0,82.54,10.35,106.37,31,23.78,20.65,36.29,48.24,37.49,82.65l-75.77,3.36c-3.24-19.28-10.21-33.16-20.88-41.58-10.67-8.48-26.65-12.68-47.98-12.68s-39.25,4.55-51.71,13.6c-8.02,5.8-12.03,13.54-12.03,23.27,0,8.87,3.75,16.5,11.26,22.81,9.56,8.02,32.76,16.38,69.63,25.03,36.86,8.76,64.11,17.75,81.8,27.02,17.63,9.33,31.46,22.01,41.47,38.17,9.95,16.1,14.96,36.06,14.96,59.73,0,21.5-5.97,41.7-17.92,60.41-11.95,18.83-28.84,32.76-50.68,41.87-21.84,9.16-49.06,13.71-81.66,13.71-47.44,0-83.87-10.98-109.3-32.88-25.43-21.96-40.61-53.87-45.56-95.85Z"/>
    <path d="m525.77,350.51l71.67,12c-9.22,26.34-23.78,46.3-43.63,60.07-19.91,13.71-44.77,20.59-74.63,20.59-47.27,0-82.25-15.42-104.95-46.3-17.92-24.74-26.88-55.97-26.88-93.74,0-45.05,11.77-80.32,35.32-105.8,23.55-25.54,53.33-38.28,89.34-38.28,40.44,0,72.36,13.37,95.73,40.05,23.38,26.74,34.56,67.63,33.53,122.75h-180.21c.51,21.33,6.31,37.94,17.41,49.77,11.09,11.89,24.91,17.8,41.47,17.8,11.26,0,20.73-3.07,28.41-9.22,7.68-6.14,13.48-16.04,17.41-29.69Zm4.1-72.7c-.51-20.82-5.89-36.63-16.13-47.5-10.24-10.81-22.7-16.27-37.37-16.27-15.7,0-28.67,5.75-38.91,17.18-10.24,11.43-15.27,26.96-15.1,46.59h107.51Z"/>
    <path d="m728.76,437.03h-71.93V165.18h66.81v38.62c11.43-18.2,21.7-30.26,30.83-36.06,9.13-5.8,19.51-8.7,31.12-8.7,16.38,0,32.17,4.55,47.36,13.6l-22.27,62.69c-12.12-7.85-23.38-11.77-33.79-11.77s-18.6,2.79-25.6,8.3c-7,5.57-12.51,15.59-16.5,30.09-4.04,14.51-6.03,44.88-6.03,91.13v83.96Z"/>
    <path d="m938.66,437.03l-109.56-271.84h75.51l51.19,138.74,14.85,46.3c3.92-11.72,6.4-19.51,7.42-23.27,2.39-7.68,4.95-15.36,7.68-23.04l51.71-138.74h73.98l-108.02,271.84h-64.76Z"/>
    <path d="m1155.47,128.32V61.77h71.93v66.55h-71.93Zm0,308.71V165.18h71.93v271.84h-71.93Z"/>
    <path d="m1538.15,245.56l-70.9,12.8c-2.39-14.16-7.79-24.86-16.27-32.03-8.42-7.17-19.4-10.69-32.88-10.69-17.92,0-32.22,6.14-42.89,18.54-10.67,12.34-15.98,33.05-15.98,62.06,0,32.25,5.4,55.01,16.27,68.32,10.81,13.31,25.37,20.02,43.63,20.02,13.65,0,24.83-3.92,33.53-11.66,8.7-7.79,14.85-21.1,18.43-40.1l70.65,12.06c-7.34,32.42-21.42,56.94-42.24,73.49-20.82,16.55-48.72,24.8-83.7,24.8-39.76,0-71.47-12.51-95.08-37.66-23.66-25.03-35.47-59.78-35.47-104.15s11.86-79.81,35.58-104.84c23.72-24.97,55.8-37.49,96.25-37.49,33.11,0,59.41,7.11,78.95,21.39,19.54,14.22,33.59,35.95,42.12,65.13Z"/>
    <path d="m1750.1,350.51l71.67,12c-9.22,26.34-23.78,46.3-43.63,60.07-19.91,13.71-44.77,20.59-74.63,20.59-47.27,0-82.25-15.42-104.95-46.3-17.92-24.74-26.88-55.97-26.88-93.74,0-45.05,11.77-80.32,35.32-105.8,23.55-25.54,53.33-38.28,89.34-38.28,40.44,0,72.36,13.37,95.73,40.05,23.38,26.74,34.56,67.63,33.53,122.75h-180.21c.51,21.33,6.31,37.94,17.41,49.77,11.09,11.89,24.91,17.8,41.47,17.8,11.26,0,20.73-3.07,28.41-9.22s13.48-16.04,17.41-29.69Zm4.1-72.7c-.51-20.82-5.89-36.63-16.13-47.5-10.24-10.81-22.7-16.27-37.37-16.27-15.7,0-28.67,5.75-38.91,17.18-10.24,11.43-15.27,26.96-15.1,46.59h107.51Z"/>
  </g>
  <g>
    <path class="cls-1" d="m1913.42,0C1891.71,0,1874.11,17.6,1874.11,39.31v38.06h74.96V0h-35.65Z"/>
    <path class="cls-3" d="m1874.11,389.1c0,29.75,24.11,53.86,53.86,53.86h21.1V120.3h-74.96v268.8Z"/>
  </g>
  <path class="cls-2" d="m2130.84,373.12h-40.32c-11.86,0-21.48-9.81-21.48-21.91v-170.06h52.63v-67.27h-52.63V0h-20.56C2017.14,0,1991.74,25.91,1991.74,57.88v316.97c0,37.46,29.35,67.91,65.87,68.79v.02h.84c.26,0,.52.02.78.02h9.81v-.02h61.8v-70.54Z"/>
</svg>